<mxfile host="app.diagrams.net" agent="Mozilla/5.0 (Windows NT 10.0; Win64; x64; rv:136.0) Gecko/20100101 Firefox/136.0" version="26.1.3" pages="2">
  <diagram id="L3eVwvhYqG5z96e_fxi1" name="Page-1">
    <mxGraphModel dx="2801" dy="626" grid="1" gridSize="10" guides="1" tooltips="1" connect="1" arrows="1" fold="1" page="1" pageScale="1" pageWidth="827" pageHeight="1169" background="#ffffff" math="0" shadow="0">
      <root>
        <mxCell id="0" />
        <mxCell id="1" parent="0" />
        <mxCell id="Ma3GyJDD1ZKm9br9JgzX-9" value="&lt;div&gt;&lt;font style=&quot;font-size: 16px;&quot;&gt;Verkehrszeichen&lt;/font&gt;&lt;/div&gt;&lt;div&gt;&lt;font style=&quot;font-size: 16px;&quot;&gt;erkennung&lt;/font&gt;&lt;/div&gt;" style="shape=cube;whiteSpace=wrap;html=1;boundedLbl=1;backgroundOutline=1;darkOpacity=0.05;darkOpacity2=0.1;size=15;" vertex="1" parent="1">
          <mxGeometry x="-805" y="385" width="165" height="110" as="geometry" />
        </mxCell>
        <mxCell id="Ma3GyJDD1ZKm9br9JgzX-1" value="&lt;font style=&quot;font-size: 16px;&quot;&gt;Datensatz&lt;/font&gt;" style="shape=document;whiteSpace=wrap;html=1;boundedLbl=1;shadow=1;" vertex="1" parent="1">
          <mxGeometry x="-771.25" y="120" width="102.5" height="40" as="geometry" />
        </mxCell>
        <mxCell id="Ma3GyJDD1ZKm9br9JgzX-4" value="&lt;font style=&quot;font-size: 16px;&quot;&gt;Ergebnisse und Auswertung&lt;/font&gt;" style="rounded=1;whiteSpace=wrap;html=1;shadow=1;" vertex="1" parent="1">
          <mxGeometry x="-630" y="335" width="120" height="60" as="geometry" />
        </mxCell>
        <mxCell id="Ma3GyJDD1ZKm9br9JgzX-7" value="&lt;font style=&quot;font-size: 16px;&quot;&gt;Modell trainieren und speichern&lt;/font&gt;" style="shape=process;whiteSpace=wrap;html=1;backgroundOutline=1;shadow=1;rounded=1;" vertex="1" parent="1">
          <mxGeometry x="-778.75" y="230" width="117.5" height="80" as="geometry" />
        </mxCell>
        <mxCell id="Ma3GyJDD1ZKm9br9JgzX-8" value="&lt;font style=&quot;font-size: 16px;&quot;&gt;Augmentation&lt;/font&gt;" style="shape=process;whiteSpace=wrap;html=1;backgroundOutline=1;shadow=1;rounded=1;" vertex="1" parent="1">
          <mxGeometry x="-790" y="180" width="140" height="30" as="geometry" />
        </mxCell>
        <mxCell id="Ma3GyJDD1ZKm9br9JgzX-10" value="" style="shape=actor;whiteSpace=wrap;html=1;" vertex="1" parent="1">
          <mxGeometry x="-877" y="460" width="40" height="60" as="geometry" />
        </mxCell>
        <mxCell id="Ma3GyJDD1ZKm9br9JgzX-11" value="Benutzer" style="text;html=1;align=center;verticalAlign=middle;whiteSpace=wrap;rounded=0;" vertex="1" parent="1">
          <mxGeometry x="-887" y="520" width="60" height="30" as="geometry" />
        </mxCell>
        <mxCell id="Ma3GyJDD1ZKm9br9JgzX-12" value="&lt;font style=&quot;font-size: 16px;&quot;&gt;Ausgabe erkannter Verkehrzeichen &lt;br&gt;&lt;/font&gt;" style="rounded=1;whiteSpace=wrap;html=1;shadow=1;" vertex="1" parent="1">
          <mxGeometry x="-790" y="510" width="155" height="85" as="geometry" />
        </mxCell>
        <mxCell id="Ma3GyJDD1ZKm9br9JgzX-6" value="&lt;font style=&quot;font-size: 16px;&quot;&gt;Modell&lt;/font&gt;" style="shape=cube;whiteSpace=wrap;html=1;boundedLbl=1;backgroundOutline=1;darkOpacity=0.05;darkOpacity2=0.1;size=10;" vertex="1" parent="1">
          <mxGeometry x="-780" y="330" width="120" height="70" as="geometry" />
        </mxCell>
        <mxCell id="Ma3GyJDD1ZKm9br9JgzX-13" value="" style="endArrow=classic;html=1;rounded=0;exitX=0;exitY=0;exitDx=120;exitDy=40;exitPerimeter=0;entryX=0;entryY=0.5;entryDx=0;entryDy=0;" edge="1" parent="1" source="Ma3GyJDD1ZKm9br9JgzX-6" target="Ma3GyJDD1ZKm9br9JgzX-4">
          <mxGeometry width="50" height="50" relative="1" as="geometry">
            <mxPoint x="-710" y="460" as="sourcePoint" />
            <mxPoint x="-570" y="450" as="targetPoint" />
          </mxGeometry>
        </mxCell>
        <mxCell id="Ma3GyJDD1ZKm9br9JgzX-14" value="" style="endArrow=classic;html=1;rounded=0;exitX=0.563;exitY=0.997;exitDx=0;exitDy=0;exitPerimeter=0;entryX=0.5;entryY=0;entryDx=0;entryDy=0;" edge="1" parent="1" source="Ma3GyJDD1ZKm9br9JgzX-9" target="Ma3GyJDD1ZKm9br9JgzX-12">
          <mxGeometry width="50" height="50" relative="1" as="geometry">
            <mxPoint x="-850" y="700" as="sourcePoint" />
            <mxPoint x="-800" y="650" as="targetPoint" />
          </mxGeometry>
        </mxCell>
        <mxCell id="Ma3GyJDD1ZKm9br9JgzX-15" value="" style="endArrow=classic;html=1;rounded=0;exitX=1;exitY=0.75;exitDx=0;exitDy=0;entryX=0;entryY=0.5;entryDx=0;entryDy=0;" edge="1" parent="1" source="Ma3GyJDD1ZKm9br9JgzX-10" target="Ma3GyJDD1ZKm9br9JgzX-12">
          <mxGeometry width="50" height="50" relative="1" as="geometry">
            <mxPoint x="-880" y="650" as="sourcePoint" />
            <mxPoint x="-830" y="600" as="targetPoint" />
          </mxGeometry>
        </mxCell>
        <mxCell id="Ma3GyJDD1ZKm9br9JgzX-16" value="" style="endArrow=classic;html=1;rounded=0;entryX=0.03;entryY=0.5;entryDx=0;entryDy=0;entryPerimeter=0;" edge="1" parent="1" target="Ma3GyJDD1ZKm9br9JgzX-9">
          <mxGeometry width="50" height="50" relative="1" as="geometry">
            <mxPoint x="-840" y="495" as="sourcePoint" />
            <mxPoint x="-790" y="445" as="targetPoint" />
          </mxGeometry>
        </mxCell>
        <mxCell id="Ma3GyJDD1ZKm9br9JgzX-17" value="" style="endArrow=classic;html=1;rounded=0;exitX=0.5;exitY=1;exitDx=0;exitDy=0;entryX=0.5;entryY=0;entryDx=0;entryDy=0;entryPerimeter=0;" edge="1" parent="1" source="Ma3GyJDD1ZKm9br9JgzX-7" target="Ma3GyJDD1ZKm9br9JgzX-6">
          <mxGeometry width="50" height="50" relative="1" as="geometry">
            <mxPoint x="-860" y="370" as="sourcePoint" />
            <mxPoint x="-720" y="340" as="targetPoint" />
          </mxGeometry>
        </mxCell>
        <mxCell id="Ma3GyJDD1ZKm9br9JgzX-18" value="" style="endArrow=classic;html=1;rounded=0;exitX=0.5;exitY=1;exitDx=0;exitDy=0;entryX=0.5;entryY=0;entryDx=0;entryDy=0;" edge="1" parent="1" source="Ma3GyJDD1ZKm9br9JgzX-8" target="Ma3GyJDD1ZKm9br9JgzX-7">
          <mxGeometry width="50" height="50" relative="1" as="geometry">
            <mxPoint x="-880" y="330" as="sourcePoint" />
            <mxPoint x="-830" y="280" as="targetPoint" />
          </mxGeometry>
        </mxCell>
        <mxCell id="Ma3GyJDD1ZKm9br9JgzX-19" value="" style="endArrow=classic;html=1;rounded=0;exitX=0.493;exitY=0.845;exitDx=0;exitDy=0;exitPerimeter=0;entryX=0.5;entryY=0;entryDx=0;entryDy=0;" edge="1" parent="1" source="Ma3GyJDD1ZKm9br9JgzX-1" target="Ma3GyJDD1ZKm9br9JgzX-8">
          <mxGeometry width="50" height="50" relative="1" as="geometry">
            <mxPoint x="-840" y="270" as="sourcePoint" />
            <mxPoint x="-790" y="220" as="targetPoint" />
          </mxGeometry>
        </mxCell>
      </root>
    </mxGraphModel>
  </diagram>
  <diagram id="l0EBRUC0dpbjFHffn02n" name="Page-2">
    <mxGraphModel dx="1024" dy="559" grid="1" gridSize="10" guides="1" tooltips="1" connect="1" arrows="1" fold="1" page="1" pageScale="1" pageWidth="827" pageHeight="1169" math="0" shadow="0">
      <root>
        <mxCell id="0" />
        <mxCell id="1" parent="0" />
        <mxCell id="yKUvmHZN8VnN53EcklIF-1" value="Trafficsigndetection" style="shape=cube;whiteSpace=wrap;html=1;boundedLbl=1;backgroundOutline=1;darkOpacity=0.05;darkOpacity2=0.1;size=15;fontSize=16;" vertex="1" parent="1">
          <mxGeometry x="307" y="405" width="165" height="110" as="geometry" />
        </mxCell>
        <mxCell id="yKUvmHZN8VnN53EcklIF-2" value="Dataset" style="shape=document;whiteSpace=wrap;html=1;boundedLbl=1;shadow=1;fontSize=16;" vertex="1" parent="1">
          <mxGeometry x="340.75" y="140" width="102.5" height="40" as="geometry" />
        </mxCell>
        <mxCell id="yKUvmHZN8VnN53EcklIF-3" value="Results and evaluation" style="rounded=1;whiteSpace=wrap;html=1;shadow=1;fontSize=16;" vertex="1" parent="1">
          <mxGeometry x="482" y="355" width="120" height="60" as="geometry" />
        </mxCell>
        <mxCell id="yKUvmHZN8VnN53EcklIF-4" value="Train and Save Model" style="shape=process;whiteSpace=wrap;html=1;backgroundOutline=1;shadow=1;rounded=1;fontSize=16;" vertex="1" parent="1">
          <mxGeometry x="333.25" y="250" width="117.5" height="80" as="geometry" />
        </mxCell>
        <mxCell id="yKUvmHZN8VnN53EcklIF-5" value="&lt;font&gt;Augmentation&lt;/font&gt;" style="shape=process;whiteSpace=wrap;html=1;backgroundOutline=1;shadow=1;rounded=1;fontSize=16;" vertex="1" parent="1">
          <mxGeometry x="322" y="200" width="140" height="30" as="geometry" />
        </mxCell>
        <mxCell id="yKUvmHZN8VnN53EcklIF-6" value="" style="shape=actor;whiteSpace=wrap;html=1;fontSize=16;" vertex="1" parent="1">
          <mxGeometry x="235" y="480" width="40" height="60" as="geometry" />
        </mxCell>
        <mxCell id="yKUvmHZN8VnN53EcklIF-7" value="User" style="text;html=1;align=center;verticalAlign=middle;whiteSpace=wrap;rounded=0;fontSize=16;" vertex="1" parent="1">
          <mxGeometry x="225" y="540" width="60" height="30" as="geometry" />
        </mxCell>
        <mxCell id="yKUvmHZN8VnN53EcklIF-8" value="Display detected traffic signs" style="rounded=1;whiteSpace=wrap;html=1;shadow=1;fontSize=16;" vertex="1" parent="1">
          <mxGeometry x="322" y="530" width="155" height="85" as="geometry" />
        </mxCell>
        <mxCell id="yKUvmHZN8VnN53EcklIF-9" value="Model" style="shape=cube;whiteSpace=wrap;html=1;boundedLbl=1;backgroundOutline=1;darkOpacity=0.05;darkOpacity2=0.1;size=10;fontSize=16;" vertex="1" parent="1">
          <mxGeometry x="332" y="350" width="120" height="70" as="geometry" />
        </mxCell>
        <mxCell id="yKUvmHZN8VnN53EcklIF-10" value="" style="endArrow=classic;html=1;rounded=0;exitX=0;exitY=0;exitDx=120;exitDy=40;exitPerimeter=0;entryX=0;entryY=0.5;entryDx=0;entryDy=0;fontSize=16;" edge="1" parent="1" source="yKUvmHZN8VnN53EcklIF-9" target="yKUvmHZN8VnN53EcklIF-3">
          <mxGeometry width="50" height="50" relative="1" as="geometry">
            <mxPoint x="402" y="480" as="sourcePoint" />
            <mxPoint x="542" y="470" as="targetPoint" />
          </mxGeometry>
        </mxCell>
        <mxCell id="yKUvmHZN8VnN53EcklIF-11" value="" style="endArrow=classic;html=1;rounded=0;exitX=0.563;exitY=0.997;exitDx=0;exitDy=0;exitPerimeter=0;entryX=0.5;entryY=0;entryDx=0;entryDy=0;fontSize=16;" edge="1" parent="1" source="yKUvmHZN8VnN53EcklIF-1" target="yKUvmHZN8VnN53EcklIF-8">
          <mxGeometry width="50" height="50" relative="1" as="geometry">
            <mxPoint x="262" y="720" as="sourcePoint" />
            <mxPoint x="312" y="670" as="targetPoint" />
          </mxGeometry>
        </mxCell>
        <mxCell id="yKUvmHZN8VnN53EcklIF-12" value="" style="endArrow=classic;html=1;rounded=0;exitX=1;exitY=0.75;exitDx=0;exitDy=0;entryX=0;entryY=0.5;entryDx=0;entryDy=0;fontSize=16;" edge="1" parent="1" source="yKUvmHZN8VnN53EcklIF-6" target="yKUvmHZN8VnN53EcklIF-8">
          <mxGeometry width="50" height="50" relative="1" as="geometry">
            <mxPoint x="232" y="670" as="sourcePoint" />
            <mxPoint x="282" y="620" as="targetPoint" />
          </mxGeometry>
        </mxCell>
        <mxCell id="yKUvmHZN8VnN53EcklIF-13" value="" style="endArrow=classic;html=1;rounded=0;entryX=0.03;entryY=0.5;entryDx=0;entryDy=0;entryPerimeter=0;fontSize=16;" edge="1" parent="1" target="yKUvmHZN8VnN53EcklIF-1">
          <mxGeometry width="50" height="50" relative="1" as="geometry">
            <mxPoint x="272" y="515" as="sourcePoint" />
            <mxPoint x="322" y="465" as="targetPoint" />
          </mxGeometry>
        </mxCell>
        <mxCell id="yKUvmHZN8VnN53EcklIF-14" value="" style="endArrow=classic;html=1;rounded=0;exitX=0.5;exitY=1;exitDx=0;exitDy=0;entryX=0.5;entryY=0;entryDx=0;entryDy=0;entryPerimeter=0;fontSize=16;" edge="1" parent="1" source="yKUvmHZN8VnN53EcklIF-4" target="yKUvmHZN8VnN53EcklIF-9">
          <mxGeometry width="50" height="50" relative="1" as="geometry">
            <mxPoint x="252" y="390" as="sourcePoint" />
            <mxPoint x="392" y="360" as="targetPoint" />
          </mxGeometry>
        </mxCell>
        <mxCell id="yKUvmHZN8VnN53EcklIF-15" value="" style="endArrow=classic;html=1;rounded=0;exitX=0.5;exitY=1;exitDx=0;exitDy=0;entryX=0.5;entryY=0;entryDx=0;entryDy=0;fontSize=16;" edge="1" parent="1" source="yKUvmHZN8VnN53EcklIF-5" target="yKUvmHZN8VnN53EcklIF-4">
          <mxGeometry width="50" height="50" relative="1" as="geometry">
            <mxPoint x="232" y="350" as="sourcePoint" />
            <mxPoint x="282" y="300" as="targetPoint" />
          </mxGeometry>
        </mxCell>
        <mxCell id="yKUvmHZN8VnN53EcklIF-16" value="" style="endArrow=classic;html=1;rounded=0;exitX=0.493;exitY=0.845;exitDx=0;exitDy=0;exitPerimeter=0;entryX=0.5;entryY=0;entryDx=0;entryDy=0;fontSize=16;" edge="1" parent="1" source="yKUvmHZN8VnN53EcklIF-2" target="yKUvmHZN8VnN53EcklIF-5">
          <mxGeometry width="50" height="50" relative="1" as="geometry">
            <mxPoint x="272" y="290" as="sourcePoint" />
            <mxPoint x="322" y="240" as="targetPoint" />
          </mxGeometry>
        </mxCell>
      </root>
    </mxGraphModel>
  </diagram>
</mxfile>
